<?xml version="1.0" standalone="no"?>
<!DOCTYPE svg PUBLIC "-//W3C//DTD SVG 1.1//EN" "http://www.w3.org/Graphics/SVG/1.1/DTD/svg11.dtd" >
<!--
2013-9-30: Created.
-->
<svg>
<metadata>
Created by iconfont
</metadata>
<defs>

<font id="iconfont" horiz-adv-x="1024" >
  <font-face
    font-family="iconfont"
    font-weight="500"
    font-stretch="normal"
    units-per-em="1024"
    ascent="896"
    descent="-128"
  />
    <missing-glyph />
    
    <glyph glyph-name="chaxun" unicode="&#58920;" d="M464 704a270.95 270.95 0 1 0-105.86-21.35A270.24 270.24 0 0 0 464 704m0 64c-185.57 0-336-150.43-336-336s150.43-336 336-336 336 150.43 336 336-150.43 336-336 336zM710.63 230.63l-45.26-45.26L850.75 0 896 45.25 710.63 230.63z"  horiz-adv-x="1024" />

    
    <glyph glyph-name="banshou" unicode="&#58979;" d="M226.56 58.352c0-21.808-18.096-39.888-39.936-39.888s-39.936 18.08-39.936 39.888 18.096 39.888 39.936 39.888 39.936-18.08 39.936-39.888z m401.808 261.76a321.696 321.696 0 0 0-179.68 179.504L23.792 75.184a80.688 80.688 0 0 1-23.712-56.72c0-21.184 8.736-41.76 23.712-56.096l66.128-67.312C104.896-119.28 125.488-128 146.704-128s41.808 8.72 56.16 23.056l425.504 425.056z m395.552 271.12c0 12.464-7.488 21.808-19.968 21.808s-157.232-90.992-177.808-102.832l-120.416 66.688v139.616l182.8 105.328c5.616 3.744 9.984 10.592 9.984 17.456 0 7.472-3.744 13.088-9.984 17.456C850.48 882.288 791.2 896 745.664 896c-154.112 0-279.52-125.28-279.52-279.216s125.408-279.216 279.52-279.216c117.92 0 224.608 76.656 263.92 187.6 6.848 19.936 14.336 45.488 14.336 66.064z"  horiz-adv-x="1024" />

    
    <glyph glyph-name="fanhui" unicode="&#58919;" d="M99.2 576.2l360.2-177.8V758.8zM677.5 624.2H454.7v-96.1h208.6c118.4 0 175.4-59.7 175.4-177.8 0-113.4-61.7-167.4-175.4-177.8H217.7v-96.1h459.8c156.7 13.3 240 94.8 246.5 249.9v48.1c-5.6 143.6-96.3 238.4-246.5 249.8z"  horiz-adv-x="1024" />

    
    <glyph glyph-name="zidingyiliebiaoxiang" unicode="&#59017;" d="M0 565.248h340.992v-84.992H0zM596.992 223.232H1024V138.24H596.992zM768 394.24h84.992v-427.008H768zM363.60192 17.7664L662.54848 828.69248l40.35584-14.87872-298.94656-810.92608z"  horiz-adv-x="1024" />

    
    <glyph glyph-name="gaojing" unicode="&#59018;" d="M911.36 9.216H112.64c-41.984 0-79.872 22.528-99.328 59.392-19.456 36.864-17.408 80.896 6.144 115.712l399.36 591.872c20.48 30.72 56.32 49.152 93.184 49.152 37.888 0 72.704-18.432 93.184-49.152l399.36-591.872c23.552-34.816 25.6-78.848 6.144-115.712-19.456-36.864-57.344-59.392-99.328-59.392zM512 738.304c-4.096 0-14.336-1.024-20.48-11.264L92.16 136.192c-7.168-11.264-3.072-21.504-1.024-25.6 1.024-4.096 8.192-13.312 21.504-13.312h798.72c13.312 0 20.48 9.216 22.528 13.312s6.144 14.336-1.024 25.6L532.48 728.064c-6.144 9.216-16.384 10.24-20.48 10.24zM533.504 267.264h-43.008c-3.072 0-5.12 3.072-6.144 6.144l-18.432 270.336c0 4.096 2.048 7.168 6.144 7.168h79.872c3.072 0 6.144-3.072 6.144-7.168l-18.432-270.336c-1.024-3.072-3.072-6.144-6.144-6.144zM512 206.848m-33.792 0a33.792 33.792 0 1 1 67.584 0 33.792 33.792 0 1 1-67.584 0Z"  horiz-adv-x="1024" />

    
    <glyph glyph-name="VOLTE" unicode="&#59019;" d="M1027.072 302.08H1.024V785.408c0 32.768 26.624 60.416 60.416 60.416h906.24c32.768 0 60.416-26.624 60.416-60.416V302.08zM97.28 397.312h834.56V749.568H97.28v-352.256zM966.656 54.272H60.416c-32.768 0-60.416 26.624-60.416 60.416V273.408h1026.048v-159.744c1.024-32.768-25.6-59.392-59.392-59.392zM97.28 150.528h834.56v27.648H97.28v-27.648zM722.944-76.8h-409.6c-2.048 0-4.096 4.096-4.096 9.216v54.272c0 5.12 2.048 9.216 4.096 9.216h409.6c2.048 0 4.096-4.096 4.096-9.216v-54.272c0-5.12-2.048-9.216-4.096-9.216z"  horiz-adv-x="1028" />

    
    <glyph glyph-name="chixujicheng" unicode="&#59020;" d="M512-94.208c-11.264 0-22.528 3.072-31.744 9.216L30.72 184.32C8.192 197.632 1.024 227.328 14.336 249.856c13.312 22.528 43.008 29.696 65.536 16.384L512 6.144l432.128 260.096c22.528 13.312 52.224 6.144 65.536-16.384s6.144-52.224-16.384-65.536L544.768-86.016c-10.24-5.12-21.504-8.192-32.768-8.192zM512 50.176c-11.264 0-22.528 3.072-31.744 9.216L30.72 329.728C8.192 343.04 1.024 372.736 14.336 395.264s43.008 29.696 65.536 16.384L512 151.552l432.128 260.096c22.528 13.312 52.224 6.144 65.536-16.384 13.312-22.528 6.144-52.224-16.384-65.536L544.768 59.392c-10.24-6.144-21.504-9.216-32.768-9.216zM512 195.584c-11.264 0-22.528 3.072-31.744 9.216L30.72 475.136C11.264 486.4 0 506.88 0 528.384c0 22.528 11.264 41.984 30.72 53.248L480.256 851.968c19.456 12.288 45.056 12.288 64.512 0L993.28 581.632c19.456-11.264 30.72-31.744 30.72-53.248 0-22.528-11.264-41.984-30.72-53.248L544.768 204.8c-10.24-6.144-21.504-9.216-32.768-9.216z m17.408 91.136zM126.976 528.384L512 296.96l386.048 232.448L512 760.832 126.976 528.384z"  horiz-adv-x="1024" />

    
    <glyph glyph-name="shouye" unicode="&#59021;" d="M845.48823-80.896H723.63223c-35.84 0-65.536 29.696-65.536 65.536V92.16c0 10.24-4.096 20.48-12.288 27.648-7.168 7.168-17.408 10.24-28.672 10.24-19.456-1.024-34.816-19.456-34.816-40.96V-15.36c0-35.84-29.696-65.536-65.536-65.536H180.91223c-34.816 0-62.464 27.648-62.464 62.464v378.88H62.12823c-26.624 0-49.152 16.384-58.368 40.96s-1.024 52.224 19.456 68.608l450.56 370.688c22.528 18.432 56.32 18.432 78.848 0l450.56-370.688c20.48-17.408 27.648-44.032 19.456-68.608-9.216-24.576-31.744-40.96-58.368-40.96h-55.296v-378.88c-1.024-34.816-29.696-62.464-63.488-62.464z m-93.184 94.208h61.44V391.168c0 33.792 26.624 62.464 60.416 64.512L512.68823 752.64 151.21623 454.656c33.792-2.048 60.416-29.696 60.416-64.512v-377.856h276.48v75.776c0 70.656 54.272 130.048 122.88 134.144 35.84 2.048 72.704-10.24 99.328-35.84 26.624-24.576 41.984-59.392 41.984-96.256v-76.8z"  horiz-adv-x="1025" />

    
    <glyph glyph-name="huancun" unicode="&#59022;" d="M964.608-128H60.416c-32.768 0-58.368 26.624-58.368 58.368V152.576c0 32.768 26.624 58.368 58.368 58.368s58.368-26.624 58.368-58.368v-162.816h787.456V152.576c0 32.768 26.624 58.368 58.368 58.368s58.368-26.624 58.368-58.368v-221.184c1.024-32.768-25.6-59.392-58.368-59.392zM513.024 90.112c-32.768 0-58.368 26.624-58.368 58.368V834.56c0 32.768 26.624 58.368 58.368 58.368s58.368-26.624 58.368-58.368v-686.08c0-32.768-26.624-58.368-58.368-58.368zM513.024 90.112c-15.36 0-29.696 6.144-40.96 17.408L234.496 343.04c-22.528 22.528-22.528 60.416 0 82.944 22.528 22.528 60.416 22.528 82.944 0L553.984 189.44c22.528-22.528 22.528-60.416 0-82.944-11.264-11.264-26.624-16.384-40.96-16.384zM513.024 90.112c-15.36 0-29.696 6.144-40.96 17.408-22.528 22.528-22.528 60.416 0 82.944l236.544 236.544c22.528 22.528 60.416 22.528 82.944 0s22.528-60.416 0-82.944L553.984 106.496c-11.264-11.264-26.624-16.384-40.96-16.384z"  horiz-adv-x="1024" />

    
    <glyph glyph-name="xiangmuguanli" unicode="&#59023;" d="M126.976 382.976c0 211.968 172.032 385.024 385.024 385.024V879.616C237.568 879.616 16.384 657.408 16.384 382.976c0-140.288 58.368-266.24 151.552-356.352l77.824 79.872c-73.728 69.632-118.784 167.936-118.784 276.48zM512-1.024c-103.424 0-197.632 40.96-267.264 108.544l-77.824-79.872c89.088-86.016 210.944-139.264 344.064-139.264 155.648 0 293.888 71.68 385.024 183.296l-86.016 70.656c-70.656-88.064-178.176-143.36-297.984-143.36zM512 879.616v-111.616c211.968 0 385.024-172.032 385.024-385.024 0-92.16-32.768-176.128-86.016-242.688l86.016-70.656c69.632 84.992 111.616 194.56 111.616 313.344C1007.616 657.408 786.432 879.616 512 879.616z"  horiz-adv-x="1024" />

    
    <glyph glyph-name="xiaoxiduilie" unicode="&#59024;" d="M819.2 81.92H247.808C111.616 81.92 0 193.536 0 330.752S111.616 578.56 247.808 578.56h12.288c49.152 100.352 151.552 164.864 265.216 164.864 145.408 0 267.264-105.472 291.84-244.736 113.664-1.024 206.848-94.208 206.848-207.872 0-97.28-67.584-179.2-158.72-201.728v-6.144l-46.08-1.024zM247.808 486.4c-86.016 0-156.672-70.656-156.672-156.672s70.656-156.672 156.672-156.672h570.368C880.64 174.08 931.84 226.304 931.84 289.792c0 64.512-52.224 116.736-116.736 116.736-10.24 0-19.456-1.024-28.672-4.096l-57.344-14.336v58.368c0 112.64-92.16 203.776-203.776 203.776-87.04 0-164.864-55.296-193.536-138.24l-13.312-37.888-39.936 8.192c-9.216 3.072-19.456 4.096-30.72 4.096z"  horiz-adv-x="1024" />

    
    <glyph glyph-name="xitongguanli" unicode="&#59025;" d="M409.6 410.624H74.752c-40.96 0-74.752 33.792-74.752 74.752V820.224C0 861.184 33.792 894.976 74.752 894.976H409.6c40.96 0 74.752-33.792 74.752-74.752v-334.848c0-40.96-33.792-74.752-74.752-74.752zM91.136 501.76h301.056V802.816H91.136v-301.056zM946.176 410.624H611.328c-40.96 0-74.752 33.792-74.752 74.752V820.224c0 40.96 33.792 74.752 74.752 74.752h334.848c40.96 0 74.752-33.792 74.752-74.752v-334.848c0-40.96-33.792-74.752-74.752-74.752z m-317.44 91.136h301.056V802.816H628.736v-301.056zM409.6-128H74.752c-40.96 0-74.752 33.792-74.752 74.752V281.6c0 40.96 33.792 74.752 74.752 74.752H409.6c40.96 0 74.752-33.792 74.752-74.752v-334.848c0-40.96-33.792-74.752-74.752-74.752zM91.136-36.864h301.056V264.192H91.136v-301.056zM946.176-128H611.328c-40.96 0-74.752 33.792-74.752 74.752V281.6c0 40.96 33.792 74.752 74.752 74.752h334.848c40.96 0 74.752-33.792 74.752-74.752v-334.848c0-40.96-33.792-74.752-74.752-74.752z m-317.44 91.136h301.056V264.192H628.736v-301.056z"  horiz-adv-x="1024" />

    
    <glyph glyph-name="xiaoxi" unicode="&#59026;" d="M510.976-59.392c-17.408 0-34.816 7.168-47.104 19.456l-121.856 122.88H109.568C49.152 82.944 0 132.096 0 192.512V717.824C0 778.24 49.152 826.368 109.568 826.368h803.84c60.416 0 109.568-49.152 109.568-109.568v-525.312c0-60.416-49.152-109.568-109.568-109.568H679.936l-121.856-122.88c-12.288-11.264-28.672-18.432-47.104-18.432zM109.568 744.448c-14.336 0-26.624-12.288-26.624-26.624v-525.312c0-14.336 12.288-26.624 26.624-26.624h268.288L512 30.72l133.12 135.168h268.288c14.336 0 26.624 12.288 26.624 26.624V717.824c0 14.336-12.288 26.624-26.624 26.624H109.568zM521.216 454.656m-55.296 0a55.296 55.296 0 1 1 110.592 0 55.296 55.296 0 1 1-110.592 0ZM748.544 454.656m-55.296 0a55.296 55.296 0 1 1 110.592 0 55.296 55.296 0 1 1-110.592 0ZM294.912 454.656m-55.296 0a55.296 55.296 0 1 1 110.592 0 55.296 55.296 0 1 1-110.592 0Z"  horiz-adv-x="1024" />

    
    <glyph glyph-name="tuichu" unicode="&#59027;" d="M497.664-22.528H94.208V790.528h403.456c25.6 0 47.104 21.504 47.104 47.104s-21.504 47.104-47.104 47.104h-450.56C21.504 884.736 0 863.232 0 837.632v-906.24c0-25.6 21.504-47.104 47.104-47.104h450.56c25.6 0 47.104 21.504 47.104 47.104 0 25.6-20.48 46.08-47.104 46.08zM1020.928 385.024c0 12.288-5.12 24.576-13.312 33.792L812.032 614.4c-18.432 18.432-48.128 18.432-66.56 0-18.432-18.432-18.432-48.128 0-66.56l116.736-116.736H272.384c-25.6 0-47.104-21.504-47.104-47.104s21.504-47.104 47.104-47.104h586.752L742.4 220.16c-18.432-18.432-18.432-48.128 0-66.56 9.216-9.216 21.504-13.312 33.792-13.312s24.576 4.096 33.792 13.312l191.488 191.488c12.288 8.192 20.48 22.528 20.48 38.912-1.024 0-1.024 0-1.024 1.024z"  horiz-adv-x="1024" />

    
    <glyph glyph-name="gerenzhongxin" unicode="&#59028;" d="M512 438.272c-124.928 0-227.328 102.4-227.328 227.328S387.072 892.928 512 892.928s227.328-102.4 227.328-227.328-102.4-227.328-227.328-227.328z m0 367.616c-76.8 0-140.288-62.464-140.288-140.288S435.2 526.336 512 526.336 651.264 588.8 651.264 665.6 588.8 805.888 512 805.888zM917.504-128H106.496c-24.576 0-48.128 10.24-64.512 28.672-15.36 17.408-23.552 40.96-21.504 64.512 25.6 243.712 237.568 427.008 491.52 427.008s465.92-183.296 491.52-427.008c2.048-23.552-5.12-47.104-21.504-64.512-15.36-18.432-38.912-28.672-64.512-28.672z m-809.984 87.04h808.96C892.928 156.672 719.872 305.152 512 305.152S131.072 156.672 107.52-40.96z"  horiz-adv-x="1024" />

    
    <glyph glyph-name="shousuo" unicode="&#59029;" d="M1017.856 642.048h-849.92c-3.072 0-6.144 3.072-6.144 6.144V795.648c0 3.072 3.072 6.144 6.144 6.144h849.92c3.072 0 6.144-3.072 6.144-6.144v-146.432c0-4.096-3.072-7.168-6.144-7.168zM1017.856-15.36h-849.92c-3.072 0-6.144 3.072-6.144 6.144V137.216c0 3.072 3.072 6.144 6.144 6.144h849.92c3.072 0 6.144-3.072 6.144-6.144v-146.432c0-3.072-3.072-6.144-6.144-6.144zM1017.856 332.8H379.904c-3.072 0-6.144 3.072-6.144 6.144V485.376c0 3.072 3.072 6.144 6.144 6.144h637.952c3.072 0 6.144-3.072 6.144-6.144v-146.432c0-3.072-3.072-6.144-6.144-6.144zM277.504 201.728L7.168 378.88c-3.072 2.048-4.096 7.168 0 9.216l270.336 202.752c4.096 3.072 9.216 0 9.216-5.12v-379.904c0-4.096-5.12-6.144-9.216-4.096z"  horiz-adv-x="1024" />

    
    <glyph glyph-name="zhankai" unicode="&#59030;" d="M10.24 143.36h849.92c3.072 0 6.144-3.072 6.144-6.144v-146.432c0-3.072-3.072-6.144-6.144-6.144H10.24c-3.072 0-6.144 3.072-6.144 6.144V137.216c0 3.072 3.072 6.144 6.144 6.144zM10.24 800.768h849.92c3.072 0 6.144-3.072 6.144-6.144v-146.432c0-3.072-3.072-6.144-6.144-6.144H10.24c-3.072 0-6.144 3.072-6.144 6.144V795.648c0 3.072 3.072 5.12 6.144 5.12zM10.24 452.608h637.952c3.072 0 6.144-3.072 6.144-6.144v-146.432c0-3.072-3.072-6.144-6.144-6.144H10.24c-3.072 0-6.144 3.072-6.144 6.144V447.488c0 3.072 3.072 5.12 6.144 5.12zM750.592 583.68l270.336-177.152c3.072-2.048 4.096-7.168 0-9.216L751.616 193.536c-4.096-3.072-9.216 0-9.216 5.12V579.584c-1.024 4.096 4.096 7.168 8.192 4.096z"  horiz-adv-x="1024" />

    
    <glyph glyph-name="xialakuang" unicode="&#58890;" d="M909.228329 896.005114H113.646509C51.143742 896.005114 0 844.88183 0 782.358606v-795.561363c0-62.523224 51.143742-113.666966 113.646509-113.666966h795.58182c62.523224 0 113.646509 51.143742 113.646509 113.666966V782.358606c0 62.523224-51.123284 113.646509-113.646509 113.646508z m56.810468-909.207871c0-34.11799-22.692478-56.83604-56.810468-56.83604H113.646509c-34.097533 0-56.810468 22.71805-56.810469 56.83604V782.358606c0 34.097533 22.71805 56.83604 56.810469 56.83604h795.58182c34.11799 0 56.810468-22.738508 56.810468-56.83604v-795.561363zM483.021956 628.779063h56.83604v-488.407392H483.021956zM762.266787 412.983159v-56.836041H260.602937V412.983159z"  horiz-adv-x="1024" />

    
    <glyph glyph-name="cha" unicode="&#59046;" d="M512 384m-512 0a512 512 0 1 1 1024 0 512 512 0 1 1-1024 0ZM324.266667 102.4c-21.333333 0-42.666667 8.533333-59.733334 25.6-34.133333 34.133333-34.133333 85.333333-4.266666 119.466667L640 640c34.133333 34.133333 85.333333 34.133333 119.466667 4.266667s34.133333-85.333333 4.266666-119.466667L384 128c-17.066667-17.066667-38.4-25.6-59.733333-25.6zM704 106.666667c-21.333333 0-42.666667 8.533333-59.733333 25.6l-384 384c-34.133333 34.133333-34.133333 85.333333 0 119.466666 34.133333 34.133333 85.333333 34.133333 119.466666 0l384-384c34.133333-34.133333 34.133333-85.333333 0-119.466666-17.066667-17.066667-38.4-25.6-59.733333-25.6z"  horiz-adv-x="1024" />

    
    <glyph glyph-name="gou" unicode="&#59047;" d="M512 384m-512 0a512 512 0 1 1 1024 0 512 512 0 1 1-1024 0ZM439.466667 136.533333c-21.333333 0-42.666667 8.533333-59.733334 25.6l-140.8 140.8c-34.133333 34.133333-34.133333 85.333333 0 119.466667 34.133333 34.133333 85.333333 34.133333 119.466667 0l81.066667-81.066667 264.533333 264.533334c34.133333 34.133333 85.333333 34.133333 119.466667 0 34.133333-34.133333 34.133333-85.333333 0-119.466667l-324.266667-324.266667c-17.066667-17.066667-38.4-25.6-59.733333-25.6z"  horiz-adv-x="1024" />

    


  </font>
</defs>
</svg>
